<svg xmlns="http://www.w3.org/2000/svg" viewBox="0 0 512 512">
  <rect width="512" height="512" fill="#111118"/>
  <rect x="80" y="140" width="352" height="232" rx="16" fill="none" stroke="#2a2a3a" stroke-width="12"/>
  <rect x="80" y="140" width="352" height="56" rx="16" fill="#e8ff47"/>
  <rect x="80" y="180" width="352" height="16" fill="#e8ff47"/>
  <circle cx="108" cy="168" r="8" fill="#111118"/>
  <circle cx="132" cy="168" r="8" fill="#111118"/>
  <circle cx="156" cy="168" r="8" fill="#111118"/>
  <rect x="108" y="224" width="140" height="10" rx="5" fill="#2a2a3a"/>
  <rect x="108" y="248" width="100" height="10" rx="5" fill="#2a2a3a"/>
  <rect x="108" y="272" width="120" height="10" rx="5" fill="#2a2a3a"/>
  <rect x="108" y="296" width="80" height="10" rx="5" fill="#2a2a3a"/>
  <rect x="280" y="224" width="120" height="10" rx="5" fill="#47ffe8" opacity="0.7"/>
  <rect x="280" y="248" width="80" height="10" rx="5" fill="#47ffe8" opacity="0.5"/>
  <rect x="280" y="272" width="100" height="10" rx="5" fill="#47ff8a" opacity="0.7"/>
  <rect x="280" y="296" width="60" height="10" rx="5" fill="#ff4747" opacity="0.6"/>
</svg>
